<svg width="16" height="16" viewBox="0 0 16 16" fill="none" xmlns="http://www.w3.org/2000/svg">
<path d="M8 14C11.3137 14 14 11.3137 14 8C14 4.68629 11.3137 2 8 2C4.68629 2 2 4.68629 2 8C2 11.3137 4.68629 14 8 14Z" fill="#FFD15C"/>
<path d="M7.99974 12.3374C10.3954 12.3374 12.3374 10.3954 12.3374 7.99974C12.3374 5.60413 10.3954 3.66211 7.99974 3.66211C5.60413 3.66211 3.66211 5.60413 3.66211 7.99974C3.66211 10.3954 5.60413 12.3374 7.99974 12.3374Z" fill="#F8B64C"/>
<path d="M10.9546 7.16184H8.95567C8.87828 7.16184 8.81097 7.11136 8.78742 7.04069L8.16824 5.13604C8.11439 4.97451 7.88557 4.97451 7.83172 5.13604L7.21254 7.03733C7.18899 7.11136 7.12169 7.15847 7.04429 7.15847H5.04541C4.87379 7.15847 4.80312 7.3772 4.94109 7.47816L6.55971 8.65258C6.62028 8.69633 6.6472 8.77709 6.62365 8.85112L6.00447 10.7524C5.95062 10.9139 6.13907 11.0519 6.27704 10.951L7.89566 9.77653C7.95623 9.73278 8.04036 9.73278 8.1043 9.77653L9.72292 10.951C9.86089 11.0519 10.046 10.9173 9.99549 10.7524L9.37631 8.85112C9.35276 8.77709 9.37968 8.69969 9.44025 8.65258L11.0589 7.47816C11.1968 7.38057 11.1262 7.16184 10.9546 7.16184Z" fill="white"/>
</svg>
