<svg width="16" height="16" viewBox="0 0 16 16" fill="none" xmlns="http://www.w3.org/2000/svg">
    <g clip-path="url(#clip0)">
        <rect width="16" height="16" fill="#33CCFF"/>
        <rect x="-4" y="-4" width="16" height="16" rx="2" fill="#33CCFF"/>
        <path d="M14.9116 2.57343C14.4005 2.83308 13.8505 3.00822 13.2733 3.0866C13.8626 2.68342 14.3145 2.04479 14.5275 1.28296C13.9764 1.65678 13.3662 1.92803 12.7162 2.07447C12.1961 1.441 11.4547 1.04492 10.6343 1.04492C9.0592 1.04492 7.78215 2.50441 7.78215 4.30483C7.78215 4.55995 7.80727 4.80863 7.85609 5.04763C5.48543 4.91152 3.38344 3.61395 1.97657 1.64162C1.73103 2.12285 1.59049 2.68278 1.59049 3.28076C1.59049 4.41159 2.09397 5.40952 2.85936 5.99396C2.392 5.97687 1.95201 5.83011 1.56734 5.58595C1.56706 5.5995 1.56706 5.61337 1.56706 5.62724C1.56706 7.20639 2.55032 8.52364 3.85532 8.8236C3.61599 8.89778 3.36397 8.93778 3.10376 8.93778C2.91975 8.93778 2.7411 8.91746 2.56697 8.87908C2.93019 10.1741 3.98344 11.1169 5.23143 11.143C4.25522 12.0174 3.02558 12.5386 1.68898 12.5386C1.45897 12.5386 1.23178 12.5231 1.00854 12.4928C2.27121 13.4182 3.77037 13.9575 5.38101 13.9575C10.6278 13.9575 13.4966 8.99035 13.4966 4.68252C13.4966 4.54125 13.494 4.4003 13.4887 4.26032C14.0458 3.80166 14.5295 3.22722 14.9116 2.57343Z" fill="white"/>
    </g>
    <defs>
        <clipPath id="clip0">
            <rect width="16" height="16" fill="white"/>
        </clipPath>
    </defs>
</svg>
